<svg width="52" height="51" viewBox="0 0 52 51" fill="none" xmlns="http://www.w3.org/2000/svg">
<path d="M26.0293 0C11.9533 0 0.529297 11.424 0.529297 25.5C0.529297 39.576 11.9533 51 26.0293 51C40.1053 51 51.5293 39.576 51.5293 25.5C51.5293 11.424 40.1053 0 26.0293 0ZM26.0293 7.65C30.2623 7.65 33.6793 11.067 33.6793 15.3C33.6793 19.533 30.2623 22.95 26.0293 22.95C21.7963 22.95 18.3793 19.533 18.3793 15.3C18.3793 11.067 21.7963 7.65 26.0293 7.65ZM26.0293 43.86C19.6543 43.86 14.0188 40.596 10.7293 35.649C10.8058 30.5745 20.9293 27.795 26.0293 27.795C31.1038 27.795 41.2528 30.5745 41.3293 35.649C38.0398 40.596 32.4043 43.86 26.0293 43.86Z" fill="white"/>
</svg>
