<svg width="34" height="34" viewBox="0 0 34 34" fill="none" xmlns="http://www.w3.org/2000/svg">
<path d="M29.545 24.5555C28.5393 23.549 27.3642 22.7276 26.0735 22.1287C27.8936 20.6542 29.0548 18.4042 29.0548 15.881C29.0548 11.4292 25.3423 7.77695 20.8905 7.84525C16.507 7.91356 12.9753 11.4854 12.9753 15.881C12.9753 18.4042 14.1405 20.6542 15.9566 22.1287C14.6657 22.7271 13.4905 23.5486 12.4851 24.5555C10.2914 26.7533 9.04586 29.6542 8.9655 32.7479C8.96443 32.7908 8.97195 32.8335 8.98762 32.8734C9.0033 32.9133 9.0268 32.9497 9.05676 32.9804C9.08671 33.0111 9.12251 33.0355 9.16204 33.0522C9.20157 33.0688 9.24404 33.0774 9.28693 33.0774H11.5369C11.7097 33.0774 11.8543 32.9408 11.8584 32.768C11.9347 30.4377 12.8789 28.256 14.5383 26.6006C15.3874 25.747 16.3974 25.0702 17.5098 24.6095C18.6223 24.1488 19.815 23.9133 21.0191 23.9167C23.4659 23.9167 25.7682 24.8689 27.4999 26.6006C29.1552 28.256 30.0994 30.4377 30.1798 32.768C30.1838 32.9408 30.3284 33.0774 30.5012 33.0774H32.7512C32.7941 33.0774 32.8366 33.0688 32.8761 33.0522C32.9156 33.0355 32.9514 33.0111 32.9814 32.9804C33.0113 32.9497 33.0349 32.9133 33.0505 32.8734C33.0662 32.8335 33.0737 32.7908 33.0726 32.7479C32.9923 29.6542 31.7468 26.7533 29.545 24.5555ZM21.0191 21.0238C19.645 21.0238 18.3512 20.4894 17.3829 19.5171C16.897 19.035 16.5131 18.4599 16.2542 17.8262C15.9954 17.1925 15.8668 16.5132 15.8762 15.8287C15.8883 14.5109 16.4146 13.2372 17.3347 12.293C18.299 11.3046 19.5887 10.7542 20.9668 10.7381C22.3289 10.7261 23.6508 11.2564 24.6231 12.2086C25.6195 13.185 26.1659 14.4908 26.1659 15.881C26.1659 17.2551 25.6316 18.5448 24.6593 19.5171C24.1822 19.9964 23.6149 20.3764 22.9901 20.635C22.3652 20.8936 21.6953 21.0258 21.0191 21.0238ZM10.9543 16.9417C10.9182 16.5921 10.8981 16.2386 10.8981 15.881C10.8981 15.2421 10.9584 14.6194 11.0709 14.0127C11.099 13.868 11.0226 13.7194 10.8901 13.6591C10.3436 13.414 9.8414 13.0765 9.40747 12.6506C8.89615 12.1548 8.4938 11.5579 8.22608 10.898C7.95835 10.238 7.83114 9.52945 7.85256 8.81757C7.88872 7.52784 8.40702 6.30239 9.31104 5.37829C10.3034 4.36177 11.6374 3.8073 13.0557 3.82338C14.3374 3.83543 15.5749 4.32963 16.511 5.20552C16.8284 5.50284 17.1017 5.8323 17.3307 6.18588C17.411 6.31043 17.5677 6.36266 17.7043 6.31445C18.4115 6.06936 19.1588 5.89659 19.9262 5.81623C20.1512 5.79213 20.2798 5.55105 20.1793 5.35016C18.8735 2.76668 16.2057 0.982751 13.12 0.934536C8.66416 0.866233 4.95166 4.51847 4.95166 8.96623C4.95166 11.4894 6.11282 13.7394 7.93291 15.214C6.65523 15.8046 5.478 16.6203 4.45747 17.6408C2.25568 19.8386 1.01015 22.7394 0.929788 25.8372C0.928716 25.8801 0.936237 25.9228 0.95191 25.9627C0.967582 26.0026 0.991088 26.039 1.02104 26.0697C1.051 26.1004 1.0868 26.1248 1.12633 26.1415C1.16586 26.1581 1.20832 26.1667 1.25122 26.1667H3.50523C3.678 26.1667 3.82265 26.0301 3.82666 25.8573C3.903 23.5269 4.8472 21.3453 6.50657 19.6899C7.68782 18.5086 9.13425 17.689 10.7133 17.2912C10.87 17.2511 10.9744 17.1024 10.9543 16.9417V16.9417Z" fill="#AD8217"/>
</svg>
