<svg width="32" height="32" viewBox="0 0 32 32" fill="none" xmlns="http://www.w3.org/2000/svg">
<path d="M16 13.3333C16.7364 13.3333 17.3334 13.9303 17.3334 14.6667V22.6667C17.3334 23.4031 16.7364 24 16 24C15.2636 24 14.6667 23.4031 14.6667 22.6667V14.6667C14.6667 13.9303 15.2636 13.3333 16 13.3333Z" fill="white"/>
<path d="M16 10.6667C16.7364 10.6667 17.3334 10.0697 17.3334 9.33334C17.3334 8.59696 16.7364 8.00001 16 8.00001C15.2636 8.00001 14.6667 8.59696 14.6667 9.33334C14.6667 10.0697 15.2636 10.6667 16 10.6667Z" fill="white"/>
<path fill-rule="evenodd" clip-rule="evenodd" d="M16 29.3333C23.3638 29.3333 29.3334 23.3638 29.3334 16C29.3334 8.63621 23.3638 2.66667 16 2.66667C8.63622 2.66667 2.66669 8.63621 2.66669 16C2.66669 23.3638 8.63622 29.3333 16 29.3333ZM16 26.6667C21.8911 26.6667 26.6667 21.891 26.6667 16C26.6667 10.109 21.8911 5.33334 16 5.33334C10.109 5.33334 5.33335 10.109 5.33335 16C5.33335 21.891 10.109 26.6667 16 26.6667Z" fill="white"/>
</svg>
