<svg width="461" height="362" viewBox="0 0 461 362" fill="none" xmlns="http://www.w3.org/2000/svg">
<path d="M455.875 244.557H441.278L392.996 70.4656C407.031 74.1501 419.382 75.5318 428.365 75.5318C441.839 75.5318 449.138 73.229 449.699 72.7684C452.506 71.8473 453.629 69.084 452.506 66.7812C451.384 64.4784 448.015 63.0967 445.208 64.0178C444.646 64.0178 413.207 73.6896 359.31 47.4377C303.168 19.8041 253.763 19.3435 236.359 20.2646V4.6056C236.359 1.84224 234.113 0 230.745 0C227.376 0 225.13 1.84224 225.13 4.6056V20.2646C207.726 19.3435 158.321 19.8041 102.179 47.4377C48.2823 73.6896 16.8427 64.0178 16.2813 64.0178C13.4741 63.0967 10.1056 64.0178 8.98276 66.3206C7.85992 68.6234 8.98276 71.3868 11.7899 72.3079C12.3513 72.3079 19.6498 75.0712 33.1239 75.0712C42.1067 75.0712 53.8966 74.1501 68.4935 70.0051L20.2112 244.097H5.61422C2.24569 244.097 0 245.939 0 248.702C0 260.677 11.7899 269.888 25.8254 269.888H125.759C140.356 269.888 151.584 260.216 151.584 248.702C151.584 245.939 149.338 244.097 145.97 244.097H131.373L81.9677 65.86C89.8276 63.0967 98.2489 59.8728 107.232 55.2672C160.567 29.0153 209.411 28.5547 224.569 29.4758V305.812H181.339C167.304 305.812 156.075 314.562 155.514 326.076H146.531C143.163 326.076 140.917 327.919 140.917 330.682V357.394C140.917 360.158 143.163 362 146.531 362H314.958C318.326 362 320.572 360.158 320.572 357.394V330.682C320.572 327.919 318.326 326.076 314.958 326.076H307.659C307.098 315.023 295.87 305.812 281.834 305.812H236.359V29.4758C251.517 28.5547 299.8 29.0153 353.696 55.2672C362.679 59.8728 371.1 63.0967 378.96 65.86L329.555 244.097H314.958C311.589 244.097 309.344 245.939 309.344 248.702C309.344 260.677 321.134 269.888 335.169 269.888H435.102C449.699 269.888 460.928 260.216 460.928 248.702C461.489 246.86 458.682 244.557 455.875 244.557ZM126.32 261.598H26.3869C20.2112 261.598 15.1584 258.374 12.9127 254.229H140.356C137.548 258.374 132.496 261.598 126.32 261.598ZM31.4397 244.557L75.792 84.743L120.144 244.557H31.4397ZM309.344 353.249H152.145V335.748H309.344V353.249ZM281.834 315.944C289.694 315.944 295.87 321.01 296.431 326.997H167.304C167.865 321.01 174.041 315.944 181.901 315.944H281.834ZM385.136 84.743L429.488 244.557H340.783L385.136 84.743ZM435.102 261.598H335.169C328.993 261.598 323.941 258.374 321.695 254.229H449.138C446.892 258.374 441.278 261.598 435.102 261.598Z" fill="#AD8217" fill-opacity="0.5"/>
</svg>
