<svg width="368" height="127" viewBox="0 0 368 127" fill="none" xmlns="http://www.w3.org/2000/svg">
<rect x="161" width="4" height="127" fill="#AD8217"/>
<path d="M139.432 81.8817H134.968L120.2 34.271C124.493 35.2786 128.271 35.6565 131.018 35.6565C135.14 35.6565 137.372 35.0267 137.544 34.9008C138.402 34.6489 138.746 33.8931 138.402 33.2634C138.059 32.6336 137.028 32.2557 136.17 32.5076C135.998 32.5076 126.382 35.1527 109.898 27.9733C92.726 20.416 77.6151 20.2901 72.292 20.542V16.2595C72.292 15.5038 71.6051 15 70.5748 15C69.5445 15 68.8577 15.5038 68.8577 16.2595V20.542C63.5345 20.2901 48.4236 20.416 31.2521 27.9733C14.7675 35.1527 5.15145 32.5076 4.97973 32.5076C4.12116 32.2557 3.09087 32.5076 2.74744 33.1374C2.40401 33.7672 2.74744 34.5229 3.60601 34.7748C3.77773 34.7748 6.01002 35.5305 10.1312 35.5305C12.8786 35.5305 16.4846 35.2786 20.9492 34.145L6.18174 81.7557H1.71715C0.686859 81.7557 0 82.2595 0 83.0153C0 86.2901 3.60601 88.8092 7.89888 88.8092H38.4641C42.9287 88.8092 46.363 86.1641 46.363 83.0153C46.363 82.2595 45.6762 81.7557 44.6459 81.7557H40.1813L25.0704 33.0114C27.4744 32.2557 30.0501 31.374 32.7975 30.1145C49.1105 22.9351 64.0496 22.8092 68.6859 23.0611V98.6336H55.4639C51.171 98.6336 47.7367 101.027 47.565 104.176H44.8176C43.7873 104.176 43.1004 104.679 43.1004 105.435V112.74C43.1004 113.496 43.7873 114 44.8176 114H96.332C97.3623 114 98.0492 113.496 98.0492 112.74V105.435C98.0492 104.679 97.3623 104.176 96.332 104.176H94.0998C93.928 101.153 90.4937 98.6336 86.2009 98.6336H72.292V23.0611C76.9283 22.8092 91.6957 22.9351 108.18 30.1145C110.928 31.374 113.504 32.2557 115.908 33.0114L100.797 81.7557H96.332C95.3018 81.7557 94.6149 82.2595 94.6149 83.0153C94.6149 86.2901 98.2209 88.8092 102.514 88.8092H133.079C137.544 88.8092 140.978 86.1641 140.978 83.0153C141.15 82.5114 140.291 81.8817 139.432 81.8817ZM38.6358 86.542H8.0706C6.18174 86.542 4.6363 85.6603 3.94944 84.5267H42.9287C42.0701 85.6603 40.5247 86.542 38.6358 86.542ZM9.61603 81.8817L23.1815 38.1756L36.747 81.8817H9.61603ZM94.6149 111.607H46.5347V106.821H94.6149V111.607ZM86.2009 101.405C88.6049 101.405 90.4937 102.79 90.6655 104.427H51.171C51.3427 102.79 53.2316 101.405 55.6356 101.405H86.2009ZM117.796 38.1756L131.362 81.8817H104.231L117.796 38.1756ZM133.079 86.542H102.514C100.625 86.542 99.0795 85.6603 98.3926 84.5267H137.372C136.685 85.6603 134.968 86.542 133.079 86.542Z" fill="#AD8217"/>
<path d="M193.148 86.624L197.036 96.656C197.196 97.04 197.367 97.3067 197.548 97.456C197.74 97.5947 197.916 97.6693 198.076 97.68V98C197.799 97.9787 197.463 97.968 197.068 97.968C196.684 97.9573 196.289 97.952 195.884 97.952C195.415 97.952 194.977 97.9573 194.572 97.968C194.167 97.968 193.836 97.9787 193.58 98V97.68C194.124 97.6587 194.471 97.568 194.62 97.408C194.769 97.2373 194.737 96.88 194.524 96.336L191.708 88.736L191.996 88.384L189.436 95.024C189.233 95.5573 189.111 95.9947 189.068 96.336C189.025 96.6773 189.052 96.944 189.148 97.136C189.244 97.328 189.404 97.4667 189.628 97.552C189.852 97.6267 190.129 97.6693 190.46 97.68V98C190.119 97.9787 189.788 97.968 189.468 97.968C189.148 97.9573 188.828 97.952 188.508 97.952C188.273 97.952 188.049 97.9573 187.836 97.968C187.633 97.968 187.452 97.9787 187.292 98V97.68C187.527 97.6267 187.756 97.488 187.98 97.264C188.215 97.04 188.439 96.6507 188.652 96.096L192.316 86.624C192.444 86.6347 192.583 86.64 192.732 86.64C192.881 86.64 193.02 86.6347 193.148 86.624ZM194.54 93.392V93.712H189.772L189.932 93.392H194.54ZM206.064 85.472V96.256C206.064 96.736 206.144 97.0933 206.304 97.328C206.464 97.552 206.747 97.664 207.152 97.664V98C206.822 97.968 206.491 97.952 206.16 97.952C205.766 97.952 205.392 97.968 205.04 98C204.688 98.032 204.358 98.0907 204.048 98.176V87.392C204.048 86.912 203.968 86.56 203.808 86.336C203.659 86.1013 203.376 85.984 202.96 85.984V85.648C203.302 85.68 203.632 85.696 203.952 85.696C204.358 85.696 204.736 85.68 205.088 85.648C205.44 85.6053 205.766 85.5467 206.064 85.472ZM202.24 89.504C202.71 89.504 203.131 89.5947 203.504 89.776C203.878 89.9573 204.155 90.2613 204.336 90.688L204.144 90.848C203.995 90.5387 203.792 90.3093 203.536 90.16C203.28 90.0107 202.992 89.936 202.672 89.936C202.096 89.936 201.632 90.2613 201.28 90.912C200.939 91.552 200.768 92.5387 200.768 93.872C200.768 94.768 200.838 95.4933 200.976 96.048C201.115 96.592 201.312 96.9867 201.568 97.232C201.835 97.4773 202.15 97.6 202.512 97.6C202.896 97.6 203.243 97.4453 203.552 97.136C203.862 96.816 204.043 96.3627 204.096 95.776L204.208 96.224C204.07 96.8747 203.808 97.3707 203.424 97.712C203.04 98.0533 202.534 98.224 201.904 98.224C201.264 98.224 200.694 98.0693 200.192 97.76C199.702 97.44 199.318 96.96 199.04 96.32C198.774 95.6693 198.64 94.848 198.64 93.856C198.64 92.8853 198.8 92.08 199.12 91.44C199.44 90.7893 199.872 90.304 200.416 89.984C200.96 89.664 201.568 89.504 202.24 89.504ZM215.453 89.728V90.064C215.25 90.1067 215.058 90.2187 214.877 90.4C214.706 90.5813 214.541 90.9013 214.381 91.36L211.933 98.048C211.805 98.0373 211.677 98.032 211.549 98.032C211.421 98.032 211.288 98.0373 211.149 98.048L208.269 90.96C208.109 90.5547 207.944 90.304 207.773 90.208C207.602 90.112 207.458 90.064 207.341 90.064V89.728C207.64 89.7493 207.949 89.7707 208.269 89.792C208.589 89.8027 208.941 89.808 209.325 89.808C209.656 89.808 210.002 89.8027 210.365 89.792C210.738 89.7707 211.085 89.7493 211.405 89.728V90.064C211.17 90.064 210.957 90.08 210.765 90.112C210.584 90.144 210.461 90.2293 210.397 90.368C210.333 90.496 210.36 90.7253 210.477 91.056L212.397 96.032L212.253 96.208L213.709 92.256C213.89 91.7547 213.965 91.3493 213.933 91.04C213.901 90.7307 213.784 90.496 213.581 90.336C213.389 90.176 213.112 90.0853 212.749 90.064V89.728C212.93 89.7387 213.101 89.7493 213.261 89.76C213.432 89.7707 213.597 89.7813 213.757 89.792C213.928 89.792 214.088 89.792 214.237 89.792C214.461 89.792 214.68 89.7867 214.893 89.776C215.117 89.7653 215.304 89.7493 215.453 89.728ZM219.746 89.504C220.482 89.504 221.132 89.6533 221.698 89.952C222.274 90.24 222.727 90.704 223.058 91.344C223.399 91.984 223.57 92.8267 223.57 93.872C223.57 94.9173 223.399 95.76 223.058 96.4C222.727 97.04 222.274 97.504 221.698 97.792C221.132 98.08 220.482 98.224 219.746 98.224C219.01 98.224 218.354 98.08 217.778 97.792C217.202 97.504 216.748 97.04 216.418 96.4C216.087 95.76 215.922 94.9173 215.922 93.872C215.922 92.8267 216.087 91.984 216.418 91.344C216.748 90.704 217.202 90.24 217.778 89.952C218.354 89.6533 219.01 89.504 219.746 89.504ZM219.746 89.824C219.244 89.824 218.834 90.144 218.514 90.784C218.204 91.4133 218.05 92.4427 218.05 93.872C218.05 95.3013 218.204 96.3307 218.514 96.96C218.834 97.5893 219.244 97.904 219.746 97.904C220.236 97.904 220.642 97.5893 220.962 96.96C221.282 96.3307 221.442 95.3013 221.442 93.872C221.442 92.4427 221.282 91.4133 220.962 90.784C220.642 90.144 220.236 89.824 219.746 89.824ZM227.659 101.008C227.03 101.008 226.459 100.949 225.947 100.832C225.435 100.715 225.03 100.539 224.731 100.304C224.432 100.08 224.283 99.792 224.283 99.44C224.283 99.0987 224.432 98.7947 224.731 98.528C225.03 98.2613 225.467 98.0587 226.043 97.92L226.155 98.176C225.952 98.2933 225.798 98.4533 225.691 98.656C225.584 98.8587 225.531 99.072 225.531 99.296C225.531 99.7547 225.739 100.107 226.155 100.352C226.582 100.608 227.147 100.736 227.851 100.736C228.331 100.736 228.774 100.672 229.179 100.544C229.584 100.416 229.91 100.219 230.155 99.952C230.4 99.6853 230.523 99.3547 230.523 98.96C230.523 98.6293 230.4 98.352 230.155 98.128C229.92 97.904 229.446 97.792 228.731 97.792H227.675C227.28 97.792 226.918 97.7493 226.587 97.664C226.267 97.5787 226.011 97.44 225.819 97.248C225.627 97.056 225.531 96.7893 225.531 96.448C225.531 96.032 225.702 95.6587 226.043 95.328C226.384 94.9867 226.918 94.656 227.643 94.336L227.819 94.48C227.552 94.6187 227.312 94.768 227.099 94.928C226.896 95.088 226.795 95.2907 226.795 95.536C226.795 95.8773 227.03 96.048 227.499 96.048H229.307C229.862 96.048 230.352 96.1173 230.779 96.256C231.216 96.3947 231.563 96.6133 231.819 96.912C232.075 97.2107 232.203 97.6053 232.203 98.096C232.203 98.608 232.038 99.0827 231.707 99.52C231.376 99.968 230.875 100.325 230.203 100.592C229.542 100.869 228.694 101.008 227.659 101.008ZM227.803 94.592C227.227 94.592 226.704 94.5067 226.235 94.336C225.776 94.1547 225.414 93.8773 225.147 93.504C224.88 93.12 224.747 92.6347 224.747 92.048C224.747 91.4613 224.88 90.9813 225.147 90.608C225.414 90.2347 225.776 89.9573 226.235 89.776C226.704 89.5947 227.227 89.504 227.803 89.504C228.39 89.504 228.912 89.5947 229.371 89.776C229.83 89.9573 230.192 90.2347 230.459 90.608C230.726 90.9813 230.859 91.4613 230.859 92.048C230.859 92.6347 230.726 93.12 230.459 93.504C230.192 93.8773 229.83 94.1547 229.371 94.336C228.912 94.5067 228.39 94.592 227.803 94.592ZM227.803 94.304C228.123 94.304 228.374 94.144 228.555 93.824C228.747 93.4933 228.843 92.9013 228.843 92.048C228.843 91.1947 228.747 90.608 228.555 90.288C228.374 89.9573 228.123 89.792 227.803 89.792C227.483 89.792 227.227 89.9573 227.035 90.288C226.854 90.608 226.763 91.1947 226.763 92.048C226.763 92.9013 226.854 93.4933 227.035 93.824C227.227 94.144 227.483 94.304 227.803 94.304ZM230.219 90.864L229.915 90.752C230.075 90.3573 230.336 90.0267 230.699 89.76C231.062 89.4827 231.446 89.344 231.851 89.344C232.16 89.344 232.4 89.4293 232.571 89.6C232.752 89.7707 232.843 90.0107 232.843 90.32C232.843 90.64 232.758 90.8747 232.587 91.024C232.416 91.1733 232.23 91.248 232.027 91.248C231.846 91.248 231.68 91.1893 231.531 91.072C231.382 90.944 231.296 90.752 231.275 90.496C231.254 90.2293 231.339 89.8987 231.531 89.504L231.691 89.568C231.275 89.728 230.966 89.904 230.763 90.096C230.56 90.288 230.379 90.544 230.219 90.864ZM235.406 98.112C234.947 98.112 234.558 98.0267 234.238 97.856C233.918 97.6747 233.678 97.4347 233.518 97.136C233.358 96.8267 233.278 96.4853 233.278 96.112C233.278 95.6533 233.384 95.28 233.598 94.992C233.811 94.6933 234.083 94.4587 234.414 94.288C234.755 94.1067 235.112 93.9573 235.486 93.84C235.859 93.712 236.211 93.5947 236.542 93.488C236.872 93.3707 237.144 93.2373 237.358 93.088C237.571 92.9387 237.678 92.7413 237.678 92.496V91.328C237.678 90.9867 237.624 90.7093 237.518 90.496C237.422 90.272 237.272 90.1067 237.07 90C236.878 89.8827 236.632 89.824 236.334 89.824C236.11 89.824 235.875 89.856 235.63 89.92C235.384 89.984 235.182 90.1067 235.022 90.288C235.299 90.3627 235.512 90.5013 235.662 90.704C235.822 90.9067 235.902 91.152 235.902 91.44C235.902 91.7707 235.79 92.032 235.566 92.224C235.352 92.4053 235.08 92.496 234.75 92.496C234.398 92.496 234.131 92.384 233.95 92.16C233.768 91.936 233.678 91.6747 233.678 91.376C233.678 91.0773 233.752 90.832 233.902 90.64C234.051 90.4373 234.259 90.256 234.526 90.096C234.792 89.9147 235.134 89.7707 235.55 89.664C235.966 89.5573 236.419 89.504 236.91 89.504C237.379 89.504 237.795 89.5573 238.158 89.664C238.52 89.76 238.83 89.936 239.086 90.192C239.342 90.4373 239.507 90.7413 239.582 91.104C239.656 91.4667 239.694 91.9093 239.694 92.432V96.816C239.694 97.0827 239.726 97.2747 239.79 97.392C239.854 97.4987 239.955 97.552 240.094 97.552C240.2 97.552 240.302 97.5253 240.398 97.472C240.494 97.4187 240.6 97.344 240.718 97.248L240.894 97.52C240.659 97.7013 240.414 97.8453 240.158 97.952C239.902 98.0587 239.592 98.112 239.23 98.112C238.856 98.112 238.558 98.0587 238.334 97.952C238.12 97.8453 237.96 97.6907 237.854 97.488C237.758 97.2853 237.704 97.0453 237.694 96.768C237.438 97.1947 237.123 97.5253 236.75 97.76C236.376 97.9947 235.928 98.112 235.406 98.112ZM236.366 97.216C236.622 97.216 236.856 97.1467 237.07 97.008C237.294 96.8693 237.496 96.6613 237.678 96.384V93.152C237.571 93.312 237.416 93.456 237.214 93.584C237.022 93.712 236.814 93.84 236.59 93.968C236.366 94.096 236.152 94.2453 235.95 94.416C235.758 94.576 235.592 94.7787 235.454 95.024C235.326 95.2587 235.262 95.5627 235.262 95.936C235.262 96.352 235.363 96.672 235.566 96.896C235.768 97.1093 236.035 97.216 236.366 97.216ZM249.017 85.472V96.256C249.017 96.736 249.098 97.0933 249.258 97.328C249.418 97.552 249.7 97.664 250.106 97.664V98C249.775 97.968 249.444 97.952 249.114 97.952C248.719 97.952 248.346 97.968 247.994 98C247.642 98.032 247.311 98.0907 247.002 98.176V87.392C247.002 86.912 246.922 86.56 246.762 86.336C246.612 86.1013 246.33 85.984 245.914 85.984V85.648C246.255 85.68 246.586 85.696 246.906 85.696C247.311 85.696 247.69 85.68 248.042 85.648C248.394 85.6053 248.719 85.5467 249.017 85.472ZM245.194 89.504C245.663 89.504 246.084 89.5947 246.458 89.776C246.831 89.9573 247.108 90.2613 247.29 90.688L247.098 90.848C246.948 90.5387 246.746 90.3093 246.49 90.16C246.234 90.0107 245.946 89.936 245.626 89.936C245.05 89.936 244.586 90.2613 244.234 90.912C243.892 91.552 243.722 92.5387 243.722 93.872C243.722 94.768 243.791 95.4933 243.93 96.048C244.068 96.592 244.266 96.9867 244.522 97.232C244.788 97.4773 245.103 97.6 245.466 97.6C245.85 97.6 246.196 97.4453 246.506 97.136C246.815 96.816 246.996 96.3627 247.05 95.776L247.162 96.224C247.023 96.8747 246.762 97.3707 246.378 97.712C245.994 98.0533 245.487 98.224 244.858 98.224C244.218 98.224 243.647 98.0693 243.146 97.76C242.655 97.44 242.271 96.96 241.993 96.32C241.727 95.6693 241.594 94.848 241.594 93.856C241.594 92.8853 241.754 92.08 242.074 91.44C242.394 90.7893 242.826 90.304 243.37 89.984C243.914 89.664 244.522 89.504 245.194 89.504ZM254.886 89.504C255.622 89.504 256.273 89.6533 256.838 89.952C257.414 90.24 257.868 90.704 258.198 91.344C258.54 91.984 258.71 92.8267 258.71 93.872C258.71 94.9173 258.54 95.76 258.198 96.4C257.868 97.04 257.414 97.504 256.838 97.792C256.273 98.08 255.622 98.224 254.886 98.224C254.15 98.224 253.494 98.08 252.918 97.792C252.342 97.504 251.889 97.04 251.558 96.4C251.228 95.76 251.062 94.9173 251.062 93.872C251.062 92.8267 251.228 91.984 251.558 91.344C251.889 90.704 252.342 90.24 252.918 89.952C253.494 89.6533 254.15 89.504 254.886 89.504ZM254.886 89.824C254.385 89.824 253.974 90.144 253.654 90.784C253.345 91.4133 253.19 92.4427 253.19 93.872C253.19 95.3013 253.345 96.3307 253.654 96.96C253.974 97.5893 254.385 97.904 254.886 97.904C255.377 97.904 255.782 97.5893 256.102 96.96C256.422 96.3307 256.582 95.3013 256.582 93.872C256.582 92.4427 256.422 91.4133 256.102 90.784C255.782 90.144 255.377 89.824 254.886 89.824ZM262.816 89.504C263.264 89.504 263.648 89.568 263.968 89.696C264.288 89.824 264.522 89.936 264.672 90.032C265.034 90.2987 265.253 90.128 265.328 89.52H265.68C265.658 89.8293 265.642 90.1973 265.632 90.624C265.621 91.04 265.616 91.6 265.616 92.304H265.264C265.21 91.9093 265.109 91.5253 264.96 91.152C264.81 90.7787 264.592 90.4693 264.304 90.224C264.016 89.968 263.637 89.84 263.168 89.84C262.837 89.84 262.56 89.936 262.336 90.128C262.122 90.32 262.016 90.592 262.016 90.944C262.016 91.264 262.112 91.5467 262.304 91.792C262.496 92.0267 262.741 92.2507 263.04 92.464C263.349 92.6667 263.669 92.8907 264 93.136C264.384 93.392 264.725 93.6533 265.024 93.92C265.322 94.176 265.562 94.464 265.744 94.784C265.925 95.0933 266.016 95.4613 266.016 95.888C266.016 96.3787 265.877 96.8 265.6 97.152C265.333 97.4933 264.976 97.76 264.528 97.952C264.09 98.1333 263.605 98.224 263.072 98.224C262.784 98.224 262.522 98.1973 262.288 98.144C262.053 98.0907 261.845 98.0213 261.664 97.936C261.525 97.8613 261.397 97.792 261.28 97.728C261.173 97.664 261.061 97.6107 260.944 97.568C260.837 97.5147 260.741 97.536 260.656 97.632C260.581 97.728 260.522 97.888 260.48 98.112H260.128C260.149 97.7707 260.165 97.3547 260.176 96.864C260.186 96.3733 260.192 95.7227 260.192 94.912H260.544C260.618 95.4987 260.73 96.016 260.88 96.464C261.04 96.9013 261.269 97.248 261.568 97.504C261.866 97.7493 262.25 97.872 262.72 97.872C262.922 97.872 263.114 97.8293 263.296 97.744C263.488 97.6587 263.642 97.5253 263.76 97.344C263.888 97.1627 263.952 96.9173 263.952 96.608C263.952 96.1387 263.792 95.7493 263.472 95.44C263.152 95.1307 262.752 94.8 262.272 94.448C261.909 94.1813 261.568 93.92 261.248 93.664C260.938 93.408 260.682 93.12 260.48 92.8C260.288 92.48 260.192 92.1013 260.192 91.664C260.192 91.184 260.314 90.7893 260.56 90.48C260.805 90.16 261.125 89.92 261.52 89.76C261.925 89.5893 262.357 89.504 262.816 89.504ZM275.652 86.688C276.058 86.688 276.388 86.7253 276.644 86.8C276.9 86.864 277.124 86.9493 277.316 87.056C277.466 87.1413 277.604 87.248 277.732 87.376C277.86 87.504 277.962 87.6427 278.036 87.792C278.111 87.9413 278.148 88.1067 278.148 88.288C278.148 88.5973 278.036 88.8427 277.812 89.024C277.588 89.2053 277.327 89.296 277.028 89.296C276.751 89.296 276.506 89.216 276.292 89.056C276.09 88.896 275.988 88.6667 275.988 88.368C275.988 88.1013 276.074 87.872 276.244 87.68C276.426 87.4773 276.66 87.3493 276.948 87.296C276.874 87.2 276.735 87.12 276.532 87.056C276.34 86.9813 276.111 86.944 275.844 86.944C275.29 86.944 274.826 87.1147 274.452 87.456C274.079 87.7973 273.892 88.304 273.892 88.976C273.892 89.232 273.935 89.5093 274.02 89.808C274.116 90.096 274.303 90.384 274.58 90.672C274.762 90.6293 274.932 90.6027 275.092 90.592C275.263 90.5707 275.402 90.56 275.508 90.56C275.7 90.56 275.85 90.5973 275.956 90.672C276.063 90.736 276.116 90.832 276.116 90.96C276.116 91.0667 276.074 91.1467 275.988 91.2C275.903 91.2533 275.796 91.28 275.668 91.28C275.476 91.28 275.279 91.232 275.076 91.136C274.874 91.04 274.714 90.96 274.596 90.896C274.052 91.12 273.61 91.4347 273.268 91.84C272.938 92.2453 272.772 92.7947 272.772 93.488C272.772 94.2027 272.959 94.8 273.332 95.28C273.716 95.76 274.25 96.1227 274.932 96.368C275.615 96.6027 276.404 96.72 277.3 96.72C277.844 96.72 278.372 96.6613 278.884 96.544C279.407 96.416 279.876 96.2293 280.292 95.984C280.708 95.7387 281.039 95.4453 281.284 95.104C281.53 94.752 281.652 94.3467 281.652 93.888C281.652 93.7067 281.62 93.4773 281.556 93.2C281.492 92.9227 281.354 92.6453 281.14 92.368C280.927 92.0907 280.596 91.8667 280.148 91.696L280.276 91.552C280.916 91.744 281.391 92.096 281.7 92.608C282.02 93.1093 282.18 93.6853 282.18 94.336C282.18 95.04 281.962 95.6907 281.524 96.288C281.087 96.8747 280.468 97.344 279.668 97.696C278.879 98.048 277.946 98.224 276.868 98.224C276.047 98.224 275.29 98.1333 274.596 97.952C273.914 97.7707 273.316 97.5093 272.804 97.168C272.303 96.816 271.914 96.3947 271.636 95.904C271.359 95.4133 271.22 94.8587 271.22 94.24C271.22 93.6533 271.338 93.152 271.572 92.736C271.807 92.32 272.1 91.9787 272.452 91.712C272.804 91.4347 273.156 91.2213 273.508 91.072C273.86 90.9227 274.148 90.8213 274.372 90.768C274.031 90.6293 273.727 90.464 273.46 90.272C273.194 90.0693 272.986 89.84 272.836 89.584C272.698 89.3173 272.628 89.0347 272.628 88.736C272.628 88.416 272.703 88.1333 272.852 87.888C273.012 87.632 273.231 87.4133 273.508 87.232C273.786 87.0507 274.106 86.9173 274.468 86.832C274.831 86.736 275.226 86.688 275.652 86.688ZM281.78 86.448C282.495 86.448 283.087 86.6453 283.556 87.04C284.026 87.424 284.26 87.968 284.26 88.672C284.26 89.1627 284.148 89.5787 283.924 89.92C283.7 90.2613 283.386 90.5493 282.98 90.784C282.586 91.008 282.122 91.1893 281.588 91.328C281.396 91.4027 281.162 91.4827 280.884 91.568C280.607 91.6533 280.308 91.744 279.988 91.84C279.679 91.9253 279.38 92.0107 279.092 92.096C278.815 92.1813 278.58 92.2613 278.388 92.336C277.716 92.5067 277.183 92.704 276.788 92.928C276.394 93.1413 276.196 93.44 276.196 93.824C276.196 94.0907 276.282 94.3253 276.452 94.528C276.623 94.72 276.836 94.864 277.092 94.96C277.348 95.056 277.599 95.104 277.844 95.104C277.919 95.104 278.01 95.0987 278.116 95.088C278.223 95.0667 278.319 95.04 278.404 95.008C278.5 94.976 278.564 94.9333 278.596 94.88C278.362 94.816 278.17 94.704 278.02 94.544C277.871 94.384 277.796 94.176 277.796 93.92C277.796 93.6107 277.908 93.3707 278.132 93.2C278.356 93.0293 278.628 92.944 278.948 92.944C279.29 92.944 279.556 93.0347 279.748 93.216C279.951 93.3973 280.052 93.6427 280.052 93.952C280.052 94.272 279.951 94.5387 279.748 94.752C279.546 94.9653 279.279 95.1253 278.948 95.232C278.628 95.328 278.282 95.376 277.908 95.376C277.524 95.376 277.162 95.3067 276.82 95.168C276.479 95.0187 276.202 94.8 275.988 94.512C275.775 94.224 275.668 93.8453 275.668 93.376C275.668 92.8853 275.791 92.464 276.036 92.112C276.282 91.76 276.634 91.4667 277.092 91.232C277.562 90.9867 278.122 90.7893 278.772 90.64C279.028 90.5653 279.322 90.4853 279.652 90.4C279.994 90.3147 280.34 90.224 280.692 90.128C281.044 90.0213 281.375 89.9093 281.684 89.792C282.367 89.5893 282.879 89.3653 283.22 89.12C283.562 88.8747 283.732 88.576 283.732 88.224C283.732 87.9253 283.647 87.664 283.476 87.44C283.306 87.216 283.082 87.04 282.804 86.912C282.527 86.784 282.228 86.72 281.908 86.72C281.802 86.72 281.706 86.7307 281.62 86.752C281.546 86.7627 281.492 86.784 281.46 86.816C281.674 86.912 281.834 87.0453 281.94 87.216C282.058 87.3867 282.116 87.5627 282.116 87.744C282.116 88.032 282.004 88.2613 281.78 88.432C281.567 88.6027 281.3 88.688 280.98 88.688C280.671 88.688 280.404 88.6027 280.18 88.432C279.967 88.2613 279.86 88.0213 279.86 87.712C279.86 87.4347 279.946 87.2 280.116 87.008C280.287 86.816 280.516 86.6773 280.804 86.592C281.103 86.496 281.428 86.448 281.78 86.448ZM293.398 86.624L297.286 96.656C297.446 97.04 297.617 97.3067 297.798 97.456C297.99 97.5947 298.166 97.6693 298.326 97.68V98C298.049 97.9787 297.713 97.968 297.318 97.968C296.934 97.9573 296.539 97.952 296.134 97.952C295.665 97.952 295.227 97.9573 294.822 97.968C294.417 97.968 294.086 97.9787 293.83 98V97.68C294.374 97.6587 294.721 97.568 294.87 97.408C295.019 97.2373 294.987 96.88 294.774 96.336L291.958 88.736L292.246 88.384L289.686 95.024C289.483 95.5573 289.361 95.9947 289.318 96.336C289.275 96.6773 289.302 96.944 289.398 97.136C289.494 97.328 289.654 97.4667 289.878 97.552C290.102 97.6267 290.379 97.6693 290.71 97.68V98C290.369 97.9787 290.038 97.968 289.718 97.968C289.398 97.9573 289.078 97.952 288.758 97.952C288.523 97.952 288.299 97.9573 288.086 97.968C287.883 97.968 287.702 97.9787 287.542 98V97.68C287.777 97.6267 288.006 97.488 288.23 97.264C288.465 97.04 288.689 96.6507 288.902 96.096L292.566 86.624C292.694 86.6347 292.833 86.64 292.982 86.64C293.131 86.64 293.27 86.6347 293.398 86.624ZM294.79 93.392V93.712H290.022L290.182 93.392H294.79ZM301.706 89.504C302.154 89.504 302.538 89.568 302.858 89.696C303.178 89.824 303.413 89.936 303.562 90.032C303.925 90.2987 304.144 90.128 304.218 89.52H304.57C304.549 89.8293 304.533 90.1973 304.522 90.624C304.512 91.04 304.506 91.6 304.506 92.304H304.154C304.101 91.9093 304 91.5253 303.85 91.152C303.701 90.7787 303.482 90.4693 303.194 90.224C302.906 89.968 302.528 89.84 302.058 89.84C301.728 89.84 301.45 89.936 301.226 90.128C301.013 90.32 300.906 90.592 300.906 90.944C300.906 91.264 301.002 91.5467 301.194 91.792C301.386 92.0267 301.632 92.2507 301.93 92.464C302.24 92.6667 302.56 92.8907 302.89 93.136C303.274 93.392 303.616 93.6533 303.914 93.92C304.213 94.176 304.453 94.464 304.634 94.784C304.816 95.0933 304.906 95.4613 304.906 95.888C304.906 96.3787 304.768 96.8 304.49 97.152C304.224 97.4933 303.866 97.76 303.418 97.952C302.981 98.1333 302.496 98.224 301.962 98.224C301.674 98.224 301.413 98.1973 301.178 98.144C300.944 98.0907 300.736 98.0213 300.554 97.936C300.416 97.8613 300.288 97.792 300.17 97.728C300.064 97.664 299.952 97.6107 299.834 97.568C299.728 97.5147 299.632 97.536 299.546 97.632C299.472 97.728 299.413 97.888 299.37 98.112H299.018C299.04 97.7707 299.056 97.3547 299.066 96.864C299.077 96.3733 299.082 95.7227 299.082 94.912H299.434C299.509 95.4987 299.621 96.016 299.77 96.464C299.93 96.9013 300.16 97.248 300.458 97.504C300.757 97.7493 301.141 97.872 301.61 97.872C301.813 97.872 302.005 97.8293 302.186 97.744C302.378 97.6587 302.533 97.5253 302.65 97.344C302.778 97.1627 302.842 96.9173 302.842 96.608C302.842 96.1387 302.682 95.7493 302.362 95.44C302.042 95.1307 301.642 94.8 301.162 94.448C300.8 94.1813 300.458 93.92 300.138 93.664C299.829 93.408 299.573 93.12 299.37 92.8C299.178 92.48 299.082 92.1013 299.082 91.664C299.082 91.184 299.205 90.7893 299.45 90.48C299.696 90.16 300.016 89.92 300.41 89.76C300.816 89.5893 301.248 89.504 301.706 89.504ZM309.019 89.504C309.467 89.504 309.851 89.568 310.171 89.696C310.491 89.824 310.726 89.936 310.875 90.032C311.238 90.2987 311.456 90.128 311.531 89.52H311.883C311.862 89.8293 311.846 90.1973 311.835 90.624C311.824 91.04 311.819 91.6 311.819 92.304H311.467C311.414 91.9093 311.312 91.5253 311.163 91.152C311.014 90.7787 310.795 90.4693 310.507 90.224C310.219 89.968 309.84 89.84 309.371 89.84C309.04 89.84 308.763 89.936 308.539 90.128C308.326 90.32 308.219 90.592 308.219 90.944C308.219 91.264 308.315 91.5467 308.507 91.792C308.699 92.0267 308.944 92.2507 309.243 92.464C309.552 92.6667 309.872 92.8907 310.203 93.136C310.587 93.392 310.928 93.6533 311.227 93.92C311.526 94.176 311.766 94.464 311.947 94.784C312.128 95.0933 312.219 95.4613 312.219 95.888C312.219 96.3787 312.08 96.8 311.803 97.152C311.536 97.4933 311.179 97.76 310.731 97.952C310.294 98.1333 309.808 98.224 309.275 98.224C308.987 98.224 308.726 98.1973 308.491 98.144C308.256 98.0907 308.048 98.0213 307.867 97.936C307.728 97.8613 307.6 97.792 307.483 97.728C307.376 97.664 307.264 97.6107 307.147 97.568C307.04 97.5147 306.944 97.536 306.859 97.632C306.784 97.728 306.726 97.888 306.683 98.112H306.331C306.352 97.7707 306.368 97.3547 306.379 96.864C306.39 96.3733 306.395 95.7227 306.395 94.912H306.747C306.822 95.4987 306.934 96.016 307.083 96.464C307.243 96.9013 307.472 97.248 307.771 97.504C308.07 97.7493 308.454 97.872 308.923 97.872C309.126 97.872 309.318 97.8293 309.499 97.744C309.691 97.6587 309.846 97.5253 309.963 97.344C310.091 97.1627 310.155 96.9173 310.155 96.608C310.155 96.1387 309.995 95.7493 309.675 95.44C309.355 95.1307 308.955 94.8 308.475 94.448C308.112 94.1813 307.771 93.92 307.451 93.664C307.142 93.408 306.886 93.12 306.683 92.8C306.491 92.48 306.395 92.1013 306.395 91.664C306.395 91.184 306.518 90.7893 306.763 90.48C307.008 90.16 307.328 89.92 307.723 89.76C308.128 89.5893 308.56 89.504 309.019 89.504ZM317.339 89.504C318.075 89.504 318.726 89.6533 319.291 89.952C319.867 90.24 320.321 90.704 320.651 91.344C320.993 91.984 321.163 92.8267 321.163 93.872C321.163 94.9173 320.993 95.76 320.651 96.4C320.321 97.04 319.867 97.504 319.291 97.792C318.726 98.08 318.075 98.224 317.339 98.224C316.603 98.224 315.947 98.08 315.371 97.792C314.795 97.504 314.342 97.04 314.011 96.4C313.681 95.76 313.515 94.9173 313.515 93.872C313.515 92.8267 313.681 91.984 314.011 91.344C314.342 90.704 314.795 90.24 315.371 89.952C315.947 89.6533 316.603 89.504 317.339 89.504ZM317.339 89.824C316.838 89.824 316.427 90.144 316.107 90.784C315.798 91.4133 315.643 92.4427 315.643 93.872C315.643 95.3013 315.798 96.3307 316.107 96.96C316.427 97.5893 316.838 97.904 317.339 97.904C317.83 97.904 318.235 97.5893 318.555 96.96C318.875 96.3307 319.035 95.3013 319.035 93.872C319.035 92.4427 318.875 91.4133 318.555 90.784C318.235 90.144 317.83 89.824 317.339 89.824ZM326.309 89.504C326.704 89.504 327.066 89.552 327.397 89.648C327.738 89.7333 328.032 89.856 328.277 90.016C328.533 90.176 328.736 90.3787 328.885 90.624C329.034 90.8587 329.109 91.12 329.109 91.408C329.109 91.76 329.002 92.0427 328.789 92.256C328.576 92.4693 328.309 92.576 327.989 92.576C327.658 92.576 327.386 92.48 327.173 92.288C326.97 92.096 326.869 91.84 326.869 91.52C326.869 91.2107 326.96 90.9547 327.141 90.752C327.322 90.5493 327.541 90.416 327.797 90.352C327.701 90.2133 327.552 90.1013 327.349 90.016C327.146 89.92 326.922 89.872 326.677 89.872C326.357 89.872 326.069 89.9573 325.813 90.128C325.557 90.288 325.333 90.5333 325.141 90.864C324.96 91.184 324.816 91.584 324.709 92.064C324.613 92.5333 324.565 93.0773 324.565 93.696C324.565 94.56 324.666 95.2427 324.869 95.744C325.082 96.2453 325.354 96.6027 325.685 96.816C326.016 97.0187 326.368 97.12 326.741 97.12C326.965 97.12 327.205 97.0773 327.461 96.992C327.717 96.9067 327.968 96.7627 328.213 96.56C328.469 96.3573 328.698 96.0693 328.901 95.696L329.205 95.808C329.088 96.1813 328.896 96.5547 328.629 96.928C328.373 97.3013 328.037 97.6107 327.621 97.856C327.205 98.1013 326.698 98.224 326.101 98.224C325.418 98.224 324.8 98.0693 324.245 97.76C323.69 97.44 323.248 96.96 322.917 96.32C322.597 95.68 322.437 94.8853 322.437 93.936C322.437 92.9973 322.602 92.2027 322.933 91.552C323.264 90.8907 323.722 90.384 324.309 90.032C324.906 89.68 325.573 89.504 326.309 89.504ZM332.088 85.648C332.472 85.648 332.786 85.7547 333.032 85.968C333.277 86.1813 333.4 86.464 333.4 86.816C333.4 87.168 333.277 87.4507 333.032 87.664C332.786 87.8773 332.472 87.984 332.088 87.984C331.704 87.984 331.389 87.8773 331.144 87.664C330.898 87.4507 330.776 87.168 330.776 86.816C330.776 86.464 330.898 86.1813 331.144 85.968C331.389 85.7547 331.704 85.648 332.088 85.648ZM333.208 89.552V96.512C333.208 96.96 333.288 97.264 333.448 97.424C333.618 97.584 333.901 97.664 334.296 97.664V98C334.104 97.9893 333.81 97.9787 333.416 97.968C333.021 97.9467 332.621 97.936 332.216 97.936C331.821 97.936 331.421 97.9467 331.016 97.968C330.61 97.9787 330.306 97.9893 330.104 98V97.664C330.498 97.664 330.776 97.584 330.936 97.424C331.106 97.264 331.192 96.96 331.192 96.512V91.488C331.192 90.9973 331.112 90.64 330.952 90.416C330.802 90.1813 330.52 90.064 330.104 90.064V89.728C330.445 89.76 330.776 89.776 331.096 89.776C331.49 89.776 331.864 89.76 332.216 89.728C332.578 89.6853 332.909 89.6267 333.208 89.552ZM337.249 98.112C336.791 98.112 336.401 98.0267 336.081 97.856C335.761 97.6747 335.521 97.4347 335.361 97.136C335.201 96.8267 335.121 96.4853 335.121 96.112C335.121 95.6533 335.228 95.28 335.441 94.992C335.655 94.6933 335.927 94.4587 336.257 94.288C336.599 94.1067 336.956 93.9573 337.329 93.84C337.703 93.712 338.055 93.5947 338.385 93.488C338.716 93.3707 338.988 93.2373 339.201 93.088C339.415 92.9387 339.521 92.7413 339.521 92.496V91.328C339.521 90.9867 339.468 90.7093 339.361 90.496C339.265 90.272 339.116 90.1067 338.913 90C338.721 89.8827 338.476 89.824 338.177 89.824C337.953 89.824 337.719 89.856 337.473 89.92C337.228 89.984 337.025 90.1067 336.865 90.288C337.143 90.3627 337.356 90.5013 337.505 90.704C337.665 90.9067 337.745 91.152 337.745 91.44C337.745 91.7707 337.633 92.032 337.409 92.224C337.196 92.4053 336.924 92.496 336.593 92.496C336.241 92.496 335.975 92.384 335.793 92.16C335.612 91.936 335.521 91.6747 335.521 91.376C335.521 91.0773 335.596 90.832 335.745 90.64C335.895 90.4373 336.103 90.256 336.369 90.096C336.636 89.9147 336.977 89.7707 337.393 89.664C337.809 89.5573 338.263 89.504 338.753 89.504C339.223 89.504 339.639 89.5573 340.001 89.664C340.364 89.76 340.673 89.936 340.929 90.192C341.185 90.4373 341.351 90.7413 341.425 91.104C341.5 91.4667 341.537 91.9093 341.537 92.432V96.816C341.537 97.0827 341.569 97.2747 341.633 97.392C341.697 97.4987 341.799 97.552 341.937 97.552C342.044 97.552 342.145 97.5253 342.241 97.472C342.337 97.4187 342.444 97.344 342.561 97.248L342.737 97.52C342.503 97.7013 342.257 97.8453 342.001 97.952C341.745 98.0587 341.436 98.112 341.073 98.112C340.7 98.112 340.401 98.0587 340.177 97.952C339.964 97.8453 339.804 97.6907 339.697 97.488C339.601 97.2853 339.548 97.0453 339.537 96.768C339.281 97.1947 338.967 97.5253 338.593 97.76C338.22 97.9947 337.772 98.112 337.249 98.112ZM338.209 97.216C338.465 97.216 338.7 97.1467 338.913 97.008C339.137 96.8693 339.34 96.6613 339.521 96.384V93.152C339.415 93.312 339.26 93.456 339.057 93.584C338.865 93.712 338.657 93.84 338.433 93.968C338.209 94.096 337.996 94.2453 337.793 94.416C337.601 94.576 337.436 94.7787 337.297 95.024C337.169 95.2587 337.105 95.5627 337.105 95.936C337.105 96.352 337.207 96.672 337.409 96.896C337.612 97.1093 337.879 97.216 338.209 97.216ZM350.861 85.472V96.256C350.861 96.736 350.941 97.0933 351.101 97.328C351.261 97.552 351.544 97.664 351.949 97.664V98C351.619 97.968 351.288 97.952 350.957 97.952C350.563 97.952 350.189 97.968 349.837 98C349.485 98.032 349.155 98.0907 348.845 98.176V87.392C348.845 86.912 348.765 86.56 348.605 86.336C348.456 86.1013 348.173 85.984 347.757 85.984V85.648C348.099 85.68 348.429 85.696 348.749 85.696C349.155 85.696 349.533 85.68 349.885 85.648C350.237 85.6053 350.563 85.5467 350.861 85.472ZM347.037 89.504C347.507 89.504 347.928 89.5947 348.301 89.776C348.675 89.9573 348.952 90.2613 349.133 90.688L348.941 90.848C348.792 90.5387 348.589 90.3093 348.333 90.16C348.077 90.0107 347.789 89.936 347.469 89.936C346.893 89.936 346.429 90.2613 346.077 90.912C345.736 91.552 345.565 92.5387 345.565 93.872C345.565 94.768 345.635 95.4933 345.773 96.048C345.912 96.592 346.109 96.9867 346.365 97.232C346.632 97.4773 346.947 97.6 347.309 97.6C347.693 97.6 348.04 97.4453 348.349 97.136C348.659 96.816 348.84 96.3627 348.893 95.776L349.005 96.224C348.867 96.8747 348.605 97.3707 348.221 97.712C347.837 98.0533 347.331 98.224 346.701 98.224C346.061 98.224 345.491 98.0693 344.989 97.76C344.499 97.44 344.115 96.96 343.837 96.32C343.571 95.6693 343.437 94.848 343.437 93.856C343.437 92.8853 343.597 92.08 343.917 91.44C344.237 90.7893 344.669 90.304 345.213 89.984C345.757 89.664 346.365 89.504 347.037 89.504ZM356.73 89.504C357.466 89.504 358.117 89.6533 358.682 89.952C359.258 90.24 359.711 90.704 360.042 91.344C360.383 91.984 360.554 92.8267 360.554 93.872C360.554 94.9173 360.383 95.76 360.042 96.4C359.711 97.04 359.258 97.504 358.682 97.792C358.117 98.08 357.466 98.224 356.73 98.224C355.994 98.224 355.338 98.08 354.762 97.792C354.186 97.504 353.733 97.04 353.402 96.4C353.071 95.76 352.906 94.9173 352.906 93.872C352.906 92.8267 353.071 91.984 353.402 91.344C353.733 90.704 354.186 90.24 354.762 89.952C355.338 89.6533 355.994 89.504 356.73 89.504ZM356.73 89.824C356.229 89.824 355.818 90.144 355.498 90.784C355.189 91.4133 355.034 92.4427 355.034 93.872C355.034 95.3013 355.189 96.3307 355.498 96.96C355.818 97.5893 356.229 97.904 356.73 97.904C357.221 97.904 357.626 97.5893 357.946 96.96C358.266 96.3307 358.426 95.3013 358.426 93.872C358.426 92.4427 358.266 91.4133 357.946 90.784C357.626 90.144 357.221 89.824 356.73 89.824ZM364.66 89.504C365.108 89.504 365.492 89.568 365.812 89.696C366.132 89.824 366.366 89.936 366.516 90.032C366.878 90.2987 367.097 90.128 367.172 89.52H367.524C367.502 89.8293 367.486 90.1973 367.476 90.624C367.465 91.04 367.46 91.6 367.46 92.304H367.108C367.054 91.9093 366.953 91.5253 366.804 91.152C366.654 90.7787 366.436 90.4693 366.148 90.224C365.86 89.968 365.481 89.84 365.012 89.84C364.681 89.84 364.404 89.936 364.18 90.128C363.966 90.32 363.86 90.592 363.86 90.944C363.86 91.264 363.956 91.5467 364.148 91.792C364.34 92.0267 364.585 92.2507 364.884 92.464C365.193 92.6667 365.513 92.8907 365.844 93.136C366.228 93.392 366.569 93.6533 366.868 93.92C367.166 94.176 367.406 94.464 367.588 94.784C367.769 95.0933 367.86 95.4613 367.86 95.888C367.86 96.3787 367.721 96.8 367.444 97.152C367.177 97.4933 366.82 97.76 366.372 97.952C365.934 98.1333 365.449 98.224 364.916 98.224C364.628 98.224 364.366 98.1973 364.132 98.144C363.897 98.0907 363.689 98.0213 363.508 97.936C363.369 97.8613 363.241 97.792 363.124 97.728C363.017 97.664 362.905 97.6107 362.788 97.568C362.681 97.5147 362.585 97.536 362.5 97.632C362.425 97.728 362.366 97.888 362.324 98.112H361.972C361.993 97.7707 362.009 97.3547 362.02 96.864C362.03 96.3733 362.036 95.7227 362.036 94.912H362.388C362.462 95.4987 362.574 96.016 362.724 96.464C362.884 96.9013 363.113 97.248 363.412 97.504C363.71 97.7493 364.094 97.872 364.564 97.872C364.766 97.872 364.958 97.8293 365.14 97.744C365.332 97.6587 365.486 97.5253 365.604 97.344C365.732 97.1627 365.796 96.9173 365.796 96.608C365.796 96.1387 365.636 95.7493 365.316 95.44C364.996 95.1307 364.596 94.8 364.116 94.448C363.753 94.1813 363.412 93.92 363.092 93.664C362.782 93.408 362.526 93.12 362.324 92.8C362.132 92.48 362.036 92.1013 362.036 91.664C362.036 91.184 362.158 90.7893 362.404 90.48C362.649 90.16 362.969 89.92 363.364 89.76C363.769 89.5893 364.201 89.504 364.66 89.504Z" fill="#AD8217"/>
<path d="M196.835 29.06C203.875 29.06 209.081 30.71 212.455 34.01C215.865 37.2733 217.57 41.9667 217.57 48.09C217.57 52.0867 216.726 55.5883 215.04 58.595C213.39 61.565 210.988 63.875 207.835 65.525C204.681 67.175 200.85 68 196.34 68C195.79 68 195.038 67.9817 194.085 67.945C193.168 67.9083 192.196 67.89 191.17 67.89C190.18 67.8533 189.263 67.835 188.42 67.835C186.916 67.835 185.45 67.8533 184.02 67.89C182.59 67.89 181.416 67.9267 180.5 68V66.9C181.71 66.8267 182.608 66.68 183.195 66.46C183.818 66.24 184.221 65.8 184.405 65.14C184.625 64.48 184.735 63.49 184.735 62.17V34.89C184.735 33.5333 184.625 32.5433 184.405 31.92C184.221 31.26 183.818 30.82 183.195 30.6C182.608 30.3433 181.71 30.1967 180.5 30.16V29.06C181.416 29.0967 182.59 29.1517 184.02 29.225C185.45 29.2617 186.88 29.2617 188.31 29.225C189.63 29.1883 191.115 29.1517 192.765 29.115C194.415 29.0783 195.771 29.06 196.835 29.06ZM196.34 30.05C194.653 30.05 193.553 30.3617 193.04 30.985C192.526 31.6083 192.27 32.8733 192.27 34.78V62.28C192.27 64.1867 192.526 65.4517 193.04 66.075C193.59 66.6983 194.708 67.01 196.395 67.01C199.805 67.01 202.463 66.295 204.37 64.865C206.313 63.3983 207.67 61.2717 208.44 58.485C209.246 55.6983 209.65 52.3067 209.65 48.31C209.65 44.2033 209.21 40.8117 208.33 38.135C207.486 35.4217 206.093 33.405 204.15 32.085C202.206 30.7283 199.603 30.05 196.34 30.05ZM250.461 29.06C250.314 30.6367 250.204 32.1583 250.131 33.625C250.094 35.0917 250.076 36.21 250.076 36.98C250.076 37.8233 250.094 38.6117 250.131 39.345C250.167 40.0783 250.204 40.72 250.241 41.27H248.976C248.572 38.52 248.022 36.3567 247.326 34.78C246.629 33.1667 245.694 32.03 244.521 31.37C243.347 30.6733 241.789 30.325 239.846 30.325H237.481C236.381 30.325 235.537 30.4167 234.951 30.6C234.364 30.7833 233.961 31.1683 233.741 31.755C233.557 32.3417 233.466 33.24 233.466 34.45V61.95C233.466 63.3433 233.612 64.3883 233.906 65.085C234.199 65.7817 234.767 66.24 235.611 66.46C236.454 66.68 237.664 66.8083 239.241 66.845V68C238.177 67.9267 236.802 67.89 235.116 67.89C233.429 67.8533 231.687 67.835 229.891 67.835C228.351 67.835 226.866 67.8533 225.436 67.89C224.006 67.89 222.759 67.9267 221.696 68V66.9C222.906 66.8267 223.804 66.68 224.391 66.46C225.014 66.24 225.417 65.8 225.601 65.14C225.821 64.48 225.931 63.49 225.931 62.17V34.89C225.931 33.5333 225.821 32.5433 225.601 31.92C225.417 31.26 225.014 30.82 224.391 30.6C223.804 30.3433 222.906 30.1967 221.696 30.16V29.06C223.162 29.0967 224.702 29.1333 226.316 29.17C227.966 29.17 229.579 29.1883 231.156 29.225C232.769 29.225 234.254 29.225 235.611 29.225C237.004 29.225 238.122 29.225 238.966 29.225C240.652 29.225 242.559 29.225 244.686 29.225C246.849 29.1883 248.774 29.1333 250.461 29.06ZM242.156 48.2C242.156 48.2 242.156 48.3833 242.156 48.75C242.156 49.1167 242.156 49.3 242.156 49.3H231.816C231.816 49.3 231.816 49.1167 231.816 48.75C231.816 48.3833 231.816 48.2 231.816 48.2H242.156ZM243.421 40.94C243.274 43.03 243.201 44.625 243.201 45.725C243.237 46.825 243.256 47.8333 243.256 48.75C243.256 49.6667 243.274 50.675 243.311 51.775C243.347 52.875 243.439 54.47 243.586 56.56H242.321C242.174 55.3133 241.899 54.14 241.496 53.04C241.092 51.9033 240.469 51.005 239.626 50.345C238.819 49.6483 237.646 49.3 236.106 49.3V48.2C237.242 48.2 238.177 47.9617 238.911 47.485C239.644 47.0083 240.212 46.4033 240.616 45.67C241.056 44.9 241.386 44.1117 241.606 43.305C241.862 42.4617 242.046 41.6733 242.156 40.94H243.421ZM273.184 28.29C275.641 28.29 277.639 28.6567 279.179 29.39C280.719 30.0867 282.131 30.9117 283.414 31.865C283.854 32.2317 284.221 32.415 284.514 32.415C285.211 32.415 285.669 31.2967 285.889 29.06H287.154C287.081 30.4533 287.026 32.1583 286.989 34.175C286.952 36.1917 286.934 38.85 286.934 42.15H285.669C285.412 40.17 285.046 38.3917 284.569 36.815C284.092 35.2383 283.231 33.9 281.984 32.8C281.031 31.7733 279.821 30.985 278.354 30.435C276.924 29.8483 275.476 29.555 274.009 29.555C272.066 29.555 270.361 30.0683 268.894 31.095C267.464 32.085 266.254 33.46 265.264 35.22C264.311 36.9433 263.596 38.96 263.119 41.27C262.642 43.5433 262.404 45.9817 262.404 48.585C262.404 55.185 263.357 60.025 265.264 63.105C267.207 66.1483 270.049 67.67 273.789 67.67C274.816 67.67 275.696 67.5417 276.429 67.285C277.199 66.9917 277.822 66.6983 278.299 66.405C278.886 66.0017 279.271 65.58 279.454 65.14C279.637 64.7 279.729 64.15 279.729 63.49V58.1C279.729 56.4867 279.582 55.295 279.289 54.525C278.996 53.7183 278.446 53.1683 277.639 52.875C276.869 52.5817 275.714 52.4167 274.174 52.38V51.28C274.907 51.3167 275.769 51.3533 276.759 51.39C277.786 51.39 278.849 51.4083 279.949 51.445C281.086 51.445 282.112 51.445 283.029 51.445C284.459 51.445 285.761 51.4267 286.934 51.39C288.107 51.3533 289.079 51.3167 289.849 51.28V52.38C289.116 52.4167 288.547 52.545 288.144 52.765C287.777 52.985 287.539 53.425 287.429 54.085C287.319 54.745 287.264 55.7533 287.264 57.11V68H286.164C286.127 67.3767 285.981 66.6983 285.724 65.965C285.467 65.2317 285.082 64.865 284.569 64.865C284.312 64.865 284.019 64.9383 283.689 65.085C283.359 65.195 282.791 65.47 281.984 65.91C280.701 66.7533 279.326 67.45 277.859 68C276.429 68.5133 274.852 68.77 273.129 68.77C269.022 68.77 265.539 68 262.679 66.46C259.856 64.8833 257.711 62.6283 256.244 59.695C254.777 56.725 254.044 53.1867 254.044 49.08C254.044 44.8633 254.869 41.1967 256.519 38.08C258.169 34.9633 260.424 32.5617 263.284 30.875C266.181 29.1517 269.481 28.29 273.184 28.29ZM293.239 29.06C294.155 29.0967 295.329 29.1333 296.759 29.17C298.189 29.2067 299.619 29.225 301.049 29.225C302.845 29.225 304.55 29.2067 306.164 29.17C307.777 29.1333 308.914 29.115 309.574 29.115C312.874 29.115 315.587 29.5183 317.714 30.325C319.877 31.095 321.49 32.195 322.554 33.625C323.617 35.055 324.149 36.7417 324.149 38.685C324.149 39.895 323.91 41.1417 323.434 42.425C322.957 43.6717 322.132 44.8267 320.959 45.89C319.785 46.9533 318.172 47.8333 316.119 48.53C314.102 49.19 311.517 49.52 308.364 49.52H303.084V48.42H307.814C310.124 48.42 311.884 48.0167 313.094 47.21C314.34 46.3667 315.165 45.2667 315.569 43.91C316.009 42.5167 316.229 40.9767 316.229 39.29C316.229 36.3933 315.66 34.1567 314.524 32.58C313.387 30.9667 311.425 30.16 308.639 30.16C307.135 30.16 306.145 30.4717 305.669 31.095C305.229 31.7183 305.009 32.9833 305.009 34.89V62.17C305.009 63.49 305.119 64.48 305.339 65.14C305.559 65.8 305.962 66.24 306.549 66.46C307.172 66.68 308.07 66.8267 309.244 66.9V68C308.327 67.9267 307.154 67.89 305.724 67.89C304.294 67.8533 302.845 67.835 301.379 67.835C299.729 67.835 298.189 67.8533 296.759 67.89C295.329 67.89 294.155 67.9267 293.239 68V66.9C294.449 66.8267 295.347 66.68 295.934 66.46C296.557 66.24 296.96 65.8 297.144 65.14C297.364 64.48 297.474 63.49 297.474 62.17V34.89C297.474 33.5333 297.364 32.5433 297.144 31.92C296.96 31.26 296.557 30.82 295.934 30.6C295.347 30.3433 294.449 30.1967 293.239 30.16V29.06ZM303.084 48.585C304.807 48.6583 306.237 48.75 307.374 48.86C308.547 48.9333 309.537 49.0067 310.344 49.08C311.187 49.1533 311.939 49.245 312.599 49.355C315.642 49.6483 317.879 50.3633 319.309 51.5C320.775 52.6 321.747 54.2867 322.224 56.56L323.489 62.225C323.819 63.7283 324.167 64.81 324.534 65.47C324.937 66.0933 325.505 66.3867 326.239 66.35C326.752 66.35 327.192 66.2217 327.559 65.965C327.925 65.6717 328.292 65.2867 328.659 64.81L329.429 65.47C328.512 66.6067 327.54 67.45 326.514 68C325.487 68.5133 324.185 68.77 322.609 68.77C320.849 68.77 319.364 68.3667 318.154 67.56C316.944 66.7167 316.119 65.14 315.679 62.83L314.634 57.33C314.34 55.79 313.992 54.4333 313.589 53.26C313.222 52.0867 312.709 51.17 312.049 50.51C311.389 49.85 310.417 49.52 309.134 49.52H303.194L303.084 48.585Z" fill="#AD8217"/>
</svg>
